<svg width="73" height="23" viewBox="0 0 73 23" fill="none" xmlns="http://www.w3.org/2000/svg">
<g clip-path="url(#clip0_562_31)">
<path fill-rule="evenodd" clip-rule="evenodd" d="M45.324 18.0003C41.1221 21.1126 35.0316 22.773 29.7877 22.773C22.4351 22.773 15.8158 20.0404 10.808 15.4954C10.4146 15.138 10.7671 14.6509 11.2392 14.9292C16.6436 18.0889 23.3258 19.9897 30.2284 19.9897C34.8836 19.9897 40.0047 19.0219 44.7134 17.0135C45.4248 16.7099 46.0196 17.4816 45.324 18.0003Z" fill="#2D2D2D"/>
<path fill-rule="evenodd" clip-rule="evenodd" d="M47.0707 15.992C46.5356 15.3025 43.5202 15.6662 42.1668 15.8275C41.7545 15.8781 41.6915 15.5175 42.0629 15.2582C44.4645 13.5597 48.4052 14.05 48.8648 14.6193C49.3243 15.1918 48.7451 19.1611 46.4884 21.0556C46.1421 21.3466 45.8116 21.1916 45.9659 20.8058C46.4726 19.5343 47.6089 16.6846 47.0707 15.992Z" fill="#2D2D2D"/>
<path fill-rule="evenodd" clip-rule="evenodd" d="M42.2612 3.26783V1.61683C42.2612 1.36697 42.4501 1.19934 42.6767 1.19934H50.0325C50.2686 1.19934 50.4574 1.37013 50.4574 1.61683V3.03062C50.4543 3.26783 50.256 3.57778 49.9034 4.06802L46.0918 9.53655C47.5082 9.50176 49.0032 9.71367 50.2874 10.4411C50.577 10.6056 50.6557 10.846 50.6777 11.0832V12.8449C50.6777 13.0852 50.4133 13.3667 50.1364 13.2212C47.8733 12.0289 44.8674 11.8992 42.3651 13.2339C42.1101 13.3731 41.8426 13.0947 41.8426 12.8544V11.1812C41.8426 10.9124 41.8457 10.4538 42.1133 10.0458L46.5293 3.68216H42.6861C42.4501 3.68216 42.2612 3.51453 42.2612 3.26783Z" fill="#2D2D2D"/>
<path fill-rule="evenodd" clip-rule="evenodd" d="M15.428 13.5691H13.1901C12.9761 13.5533 12.8061 13.392 12.7904 13.1864V1.64524C12.7904 1.41435 12.9824 1.2309 13.2216 1.2309H15.3084C15.5256 1.24039 15.6987 1.40802 15.7145 1.61677V3.12544H15.7554C16.2999 1.66737 17.3229 0.987366 18.7015 0.987366C20.1022 0.987366 20.9772 1.66737 21.6067 3.12544C22.1481 1.66737 23.3787 0.987366 24.6976 0.987366C25.6355 0.987366 26.6616 1.37639 27.288 2.24933C27.9962 3.22032 27.8514 4.63094 27.8514 5.86761L27.8483 13.1516C27.8483 13.3825 27.6563 13.5691 27.4171 13.5691H25.1823C24.9588 13.5533 24.7794 13.373 24.7794 13.1516V7.03469C24.7794 6.54761 24.8235 5.33309 24.7165 4.87131C24.5496 4.09642 24.0492 3.87819 23.4008 3.87819C22.8594 3.87819 22.2928 4.24191 22.0631 4.82387C21.8333 5.40583 21.8553 6.37998 21.8553 7.03469V13.1516C21.8553 13.3825 21.6633 13.5691 21.4241 13.5691H19.1894C18.9627 13.5533 18.7865 13.373 18.7865 13.1516L18.7833 7.03469C18.7833 5.74742 18.9942 3.85289 17.4047 3.85289C15.7963 3.85289 15.8593 5.69997 15.8593 7.03469V13.1516C15.8593 13.3825 15.6673 13.5691 15.428 13.5691" fill="#2D2D2D"/>
<path fill-rule="evenodd" clip-rule="evenodd" d="M56.7905 0.987366C60.1111 0.987366 61.9084 3.85289 61.9084 7.49646C61.9084 11.0167 59.9223 13.8095 56.7905 13.8095C53.5296 13.8095 51.7544 10.9439 51.7544 7.37311C51.7544 3.78014 53.5516 0.987366 56.7905 0.987366ZM56.8093 3.34367C55.16 3.34367 55.0562 5.60193 55.0562 7.00939C55.0562 8.42001 55.0341 11.431 56.7905 11.431C58.5248 11.431 58.6066 9.00197 58.6066 7.52176C58.6066 6.54762 58.5657 5.3837 58.273 4.46015C58.0212 3.65679 57.5207 3.34367 56.8093 3.34367Z" fill="#2D2D2D"/>
<path fill-rule="evenodd" clip-rule="evenodd" d="M66.2138 13.5691H63.9854C63.7619 13.5533 63.5825 13.373 63.5825 13.1516L63.5793 1.60728C63.5982 1.39537 63.7839 1.2309 64.0106 1.2309H66.0848C66.2799 1.24039 66.4405 1.37323 66.4845 1.55351V3.31837H66.5254C67.1518 1.74012 68.03 0.987366 69.5754 0.987366C70.5795 0.987366 71.5584 1.35109 72.1879 2.34738C72.7733 3.27093 72.7733 4.82387 72.7733 5.94035V13.2054C72.7481 13.4078 72.5624 13.5691 72.3421 13.5691H70.0979C69.8933 13.5533 69.7233 13.4015 69.7013 13.2054V6.93664C69.7013 5.67467 69.8461 3.82758 68.3007 3.82758C67.7561 3.82758 67.2557 4.19447 67.007 4.75113C66.6923 5.45644 66.6513 6.15859 66.6513 6.93664V13.1516C66.6482 13.3825 66.4531 13.5691 66.2138 13.5691" fill="#2D2D2D"/>
<path fill-rule="evenodd" clip-rule="evenodd" d="M36.3973 8.05626C36.3973 8.93236 36.4194 9.66298 35.9787 10.441C35.623 11.0736 35.0565 11.4626 34.4301 11.4626C33.5708 11.4626 33.0672 10.8048 33.0672 9.83377C33.0672 7.9171 34.7763 7.56919 36.3973 7.56919V8.05626ZM38.6541 13.5374C38.5062 13.6703 38.2922 13.6798 38.1253 13.5912C37.3825 12.9713 37.2472 12.6835 36.8411 12.092C35.6136 13.3508 34.7417 13.7272 33.1522 13.7272C31.2668 13.7272 29.8032 12.5601 29.8032 10.2228C29.8032 8.39785 30.7853 7.15486 32.1891 6.5476C33.404 6.00991 35.1005 5.91503 36.3973 5.76638V5.4754C36.3973 4.94088 36.4383 4.30831 36.1235 3.84654C35.8528 3.43221 35.3303 3.26142 34.8676 3.26142C34.0146 3.26142 33.2561 3.70105 33.0704 4.61194C33.0326 4.81437 32.8847 5.01363 32.6801 5.02311L30.5114 4.78906C30.3289 4.74795 30.1243 4.59929 30.1778 4.3178C30.6751 1.67368 33.0546 0.876648 35.1824 0.876648C36.2714 0.876648 37.6941 1.16763 38.5534 1.99629C39.6425 3.01788 39.5386 4.38106 39.5386 5.86443V9.36884C39.5386 10.4221 39.9729 10.8838 40.3821 11.4531C40.5238 11.6556 40.5553 11.8991 40.3727 12.0509C39.9163 12.4336 39.1042 13.1453 38.6573 13.5438L38.6541 13.5374" fill="#2D2D2D"/>
<path fill-rule="evenodd" clip-rule="evenodd" d="M7.05895 8.05654C7.05895 8.93264 7.08098 9.66325 6.64033 10.4413C6.28465 11.0739 5.72124 11.4629 5.09173 11.4629C4.23245 11.4629 3.732 10.805 3.732 9.83404C3.732 7.91737 5.44111 7.56946 7.05895 7.56946V8.05654ZM9.31574 13.5377C9.16781 13.6705 8.95377 13.68 8.78695 13.5915C8.04413 12.9716 7.91193 12.6838 7.50275 12.0923C6.27521 13.3511 5.40649 13.7275 3.81383 13.7275C1.9316 13.7275 0.464844 12.5604 0.464844 10.2231C0.464844 8.39812 1.45003 7.15513 2.85068 6.54787C4.06563 6.01019 5.76216 5.9153 7.05895 5.76665V5.47567C7.05895 4.94115 7.09987 4.30859 6.78826 3.84682C6.51442 3.43249 5.99193 3.26169 5.53239 3.26169C4.67941 3.26169 3.9177 3.70133 3.732 4.61222C3.69422 4.81464 3.54629 5.0139 3.34485 5.02339L1.17304 4.78934C0.990484 4.74822 0.78904 4.59957 0.839401 4.31808C1.33986 1.67396 3.71626 0.876923 5.844 0.876923C6.93305 0.876923 8.35574 1.1679 9.21502 1.99656C10.3041 3.01815 10.2002 4.38133 10.2002 5.8647V9.36911C10.2002 10.4223 10.6346 10.8841 11.0437 11.4534C11.1885 11.6558 11.22 11.8994 11.0374 12.0512C10.5811 12.4339 9.76899 13.1455 9.32203 13.544L9.31574 13.5377" fill="#2D2D2D"/>
</g>
<defs>
<clipPath id="clip0_562_31">
<rect width="72.3086" height="21.8963" fill="white" transform="translate(0.464844 0.876709)"/>
</clipPath>
</defs>
</svg>
