<svg width="19" height="23" viewBox="0 0 19 23" fill="none" xmlns="http://www.w3.org/2000/svg">
<g clip-path="url(#clip0_562_51)">
<path d="M18.4847 17.9409C18.1536 18.7059 17.7616 19.41 17.3075 20.0574C16.6884 20.94 16.1816 21.5509 15.791 21.8902C15.1855 22.447 14.5367 22.7322 13.842 22.7484C13.3433 22.7484 12.7418 22.6065 12.0417 22.3186C11.3393 22.0321 10.6938 21.8902 10.1036 21.8902C9.48454 21.8902 8.82064 22.0321 8.11052 22.3186C7.39932 22.6065 6.82639 22.7565 6.38834 22.7714C5.72215 22.7998 5.05812 22.5065 4.3953 21.8902C3.97226 21.5212 3.44312 20.8887 2.80923 19.9926C2.12911 19.0356 1.56997 17.926 1.13192 16.6609C0.662787 15.2945 0.427612 13.9713 0.427612 12.6903C0.427612 11.2228 0.744693 9.95723 1.3798 8.89664C1.87894 8.04474 2.54297 7.37274 3.37405 6.87941C4.20514 6.38608 5.10313 6.13469 6.07018 6.11861C6.59932 6.11861 7.29322 6.28228 8.15553 6.60396C9.0154 6.92672 9.56752 7.09039 9.80959 7.09039C9.99057 7.09039 10.6039 6.89901 11.6437 6.51746C12.627 6.16361 13.4568 6.0171 14.1367 6.07481C15.9789 6.22349 17.3629 6.94969 18.2833 8.25802C16.6357 9.2563 15.8207 10.6545 15.837 12.4482C15.8518 13.8453 16.3587 15.0079 17.3548 15.9311C17.8062 16.3595 18.3103 16.6907 18.8712 16.9258C18.7496 17.2786 18.6212 17.6165 18.4847 17.9409ZM14.2597 1.31509C14.2597 2.41016 13.8596 3.43261 13.0622 4.37899C12.0998 5.50404 10.9359 6.15415 9.67362 6.05157C9.65754 5.92019 9.64821 5.78193 9.64821 5.63663C9.64821 4.58537 10.1059 3.46032 10.9186 2.54044C11.3243 2.07468 11.8403 1.68741 12.4661 1.37848C13.0905 1.07416 13.6812 0.905865 14.2367 0.877045C14.2529 1.02344 14.2597 1.16984 14.2597 1.31508V1.31509Z" fill="#2D2D2D"/>
</g>
<defs>
<clipPath id="clip0_562_51">
<rect width="18.4436" height="21.8963" fill="white" transform="translate(0.427734 0.876709)"/>
</clipPath>
</defs>
</svg>
