<svg width="67" height="22" viewBox="0 0 67 22" fill="none" xmlns="http://www.w3.org/2000/svg">
<path d="M28.4655 11.5473C28.4655 14.6975 26.0011 17.0189 22.9767 17.0189C19.9522 17.0189 17.4878 14.6975 17.4878 11.5473C17.4878 8.37484 19.9522 6.07568 22.9767 6.07568C26.0011 6.07568 28.4655 8.37484 28.4655 11.5473ZM26.0627 11.5473C26.0627 9.57869 24.6344 8.23176 22.9767 8.23176C21.3189 8.23176 19.8906 9.57869 19.8906 11.5473C19.8906 13.4961 21.3189 14.8628 22.9767 14.8628C24.6344 14.8628 26.0627 13.4937 26.0627 11.5473Z" fill="#2D2D2D"/>
<path d="M40.3073 11.5473C40.3073 14.6975 37.8429 17.0189 34.8184 17.0189C31.794 17.0189 29.3296 14.6975 29.3296 11.5473C29.3296 8.3773 31.794 6.07568 34.8184 6.07568C37.8429 6.07568 40.3073 8.37484 40.3073 11.5473ZM37.9045 11.5473C37.9045 9.57869 36.4762 8.23176 34.8184 8.23176C33.1607 8.23176 31.7324 9.57869 31.7324 11.5473C31.7324 13.4961 33.1607 14.8628 34.8184 14.8628C36.4762 14.8628 37.9045 13.4937 37.9045 11.5473Z" fill="#2D2D2D"/>
<path d="M51.6543 6.40625V16.2295C51.6543 20.2702 49.2713 21.9206 46.4541 21.9206C43.8022 21.9206 42.2061 20.1469 41.6041 18.6964L43.6961 17.8255C44.0686 18.7161 44.9813 19.767 46.4516 19.767C48.2549 19.767 49.3724 18.6544 49.3724 16.56V15.7731H49.2885C48.7508 16.4367 47.7147 17.0164 46.4072 17.0164C43.6714 17.0164 41.165 14.6334 41.165 11.567C41.165 8.47845 43.6714 6.07568 46.4072 6.07568C47.7122 6.07568 48.7483 6.65541 49.2885 7.29927H49.3724V6.40872H51.6543V6.40625ZM49.5426 11.567C49.5426 9.64036 48.2574 8.23176 46.6218 8.23176C44.9641 8.23176 43.5752 9.64036 43.5752 11.567C43.5752 13.4739 44.9641 14.8628 46.6218 14.8628C48.2574 14.8628 49.5426 13.4739 49.5426 11.567Z" fill="#2D2D2D"/>
<path d="M55.4164 0.64859V16.6835H53.0729V0.64859H55.4164Z" fill="#2D2D2D"/>
<path d="M64.5493 13.3481L66.4143 14.5915C65.8124 15.482 64.3618 17.0164 61.8555 17.0164C58.7471 17.0164 56.4258 14.6137 56.4258 11.5448C56.4258 8.29099 58.7669 6.07324 61.5866 6.07324C64.426 6.07324 65.8148 8.33293 66.2688 9.55404L66.5179 10.1757L59.2035 13.2051C59.7635 14.3028 60.6343 14.8628 61.8555 14.8628C63.079 14.8628 63.9277 14.2609 64.5493 13.3481ZM58.8088 11.3795L63.6982 9.34929C63.4293 8.66596 62.6202 8.18984 61.668 8.18984C60.4468 8.18984 58.7471 9.26788 58.8088 11.3795Z" fill="#2D2D2D"/>
<path d="M8.61689 10.1239V7.80256H16.4394C16.5159 8.20713 16.5554 8.68571 16.5554 9.20376C16.5554 10.9454 16.0793 13.099 14.5449 14.6334C13.0524 16.1876 11.1455 17.0164 8.61935 17.0164C3.93718 17.0164 0 13.2026 0 8.52043C0 3.83825 3.93718 0.0244141 8.61935 0.0244141C11.2096 0.0244141 13.0548 1.04078 14.4412 2.3655L12.8032 4.00353C11.8091 3.07104 10.4621 2.34577 8.61689 2.34577C5.19776 2.34577 2.52364 5.1013 2.52364 8.52043C2.52364 11.9396 5.19776 14.6951 8.61689 14.6951C10.8346 14.6951 12.0977 13.8045 12.9068 12.9954C13.563 12.3392 13.9947 11.4018 14.165 10.1214L8.61689 10.1239Z" fill="#2D2D2D"/>
</svg>
