<svg width="89" height="22" viewBox="0 0 89 22" fill="none" xmlns="http://www.w3.org/2000/svg">
<g clip-path="url(#clip0_562_18)">
<path d="M0.956787 4.80841C0.956787 4.80841 3.11687 13.6598 3.46161 15.0965C3.86398 16.7734 4.58899 17.3906 6.67932 16.9744L8.02813 11.4866C8.36999 10.1234 8.59928 9.15163 8.81902 7.76498H8.85768C9.01209 9.16525 9.23195 10.1275 9.51327 11.4914C9.51327 11.4914 10.0623 13.9827 10.3435 15.2912C10.6254 16.5993 11.41 17.4237 13.4575 16.9749L16.6713 4.80934H14.0765L12.9793 10.0691C12.6843 11.6001 12.4167 12.7964 12.2103 14.197H12.1737C11.9861 12.8104 11.7475 11.6615 11.4476 10.1698L10.3052 4.80934H7.60161L6.37959 10.0347C6.03338 11.6226 5.70957 12.9048 5.50365 14.2579H5.46636C5.25549 12.9836 4.97462 11.3721 4.67047 9.83506C4.67047 9.83506 3.94444 6.09762 3.68971 4.80934L0.95704 4.80969L0.956787 4.80841ZM25.693 4.80841V16.9739H28.1635V14.3906V4.80783H25.693V4.80841ZM60.4874 4.80841V13.7831C60.4874 15.0205 60.7202 15.8874 61.2185 16.4171C61.6537 16.8803 62.3707 17.1802 63.2297 17.1802C63.9601 17.1802 64.6788 17.0417 65.0175 16.9155L64.9856 14.9849C64.7336 15.0469 64.4437 15.0966 64.0472 15.0966C63.2056 15.0966 62.9234 14.5576 62.9234 13.4466V10.0129H65.075V7.68526H62.9234V4.80845H60.4872L60.4874 4.80841ZM20.172 7.62864C18.6367 7.62864 17.4179 8.05972 16.7536 8.44363L17.2397 10.1084C17.8477 9.72513 18.8158 9.40782 19.7325 9.40782C21.2501 9.40392 21.4982 10.2659 21.4982 10.8188V10.9496C18.1913 10.9446 16.1025 12.0889 16.1025 14.4214C16.1025 15.8456 17.1658 17.1802 19.0148 17.1802C20.153 17.1802 21.1049 16.7262 21.6754 15.9989H21.7313C21.7313 15.9989 22.1091 17.5785 24.1904 16.9744C24.0811 16.317 24.0456 15.6161 24.0456 14.7719V11.5219C24.0456 9.45053 23.1611 7.62867 20.172 7.62867L20.172 7.62864ZM34.9501 7.62864C33.4042 7.62864 32.7095 8.41208 32.2883 9.07677H32.2516V7.83495H29.894V16.9745H32.3776V11.6145C32.3776 11.3633 32.4063 11.0976 32.4941 10.8664C32.6998 10.3267 33.2019 9.69548 34.0035 9.69548C35.0056 9.69548 35.4746 10.5427 35.4746 11.7655V16.9744H37.9556V11.5496C37.9556 11.3097 37.9884 11.0208 38.059 10.8087C38.263 10.1949 38.8043 9.69539 39.5494 9.69539C40.5654 9.69539 41.053 10.5279 41.053 11.9667V16.9744H43.5357V11.5915C43.5357 8.75268 42.0942 7.62869 40.467 7.62869C39.7463 7.62869 39.1775 7.80938 38.6633 8.1251C38.231 8.39034 37.8441 8.76721 37.5058 9.26345H37.4692C37.0757 8.27847 36.1524 7.62869 34.9497 7.62869L34.9501 7.62864ZM48.5885 7.62864C47.0535 7.62864 45.835 8.05972 45.17 8.44363L45.6569 10.1084C46.2643 9.72513 47.233 9.40782 48.1491 9.40782C49.6657 9.40392 49.9144 10.2659 49.9144 10.8188V10.9496C46.608 10.9446 44.5189 12.0889 44.5189 14.4214C44.5189 15.8456 45.5828 17.1802 47.4328 17.1802C48.57 17.1802 49.5223 16.7262 50.0917 15.9989H50.1479C50.1479 15.9989 50.5256 17.5785 52.6072 16.9744C52.4977 16.317 52.4626 15.6161 52.4626 14.7719V11.5219C52.4626 9.45053 51.5779 7.62867 48.5885 7.62867L48.5885 7.62864ZM58.9023 7.62864C57.9513 7.62864 56.8693 8.24254 56.4151 9.55854H56.3457V7.83483H54.11V16.9744H56.6587V12.2944C56.6587 12.0419 56.674 11.8218 56.7139 11.6199C56.9024 10.6395 57.6523 10.0128 58.7285 10.0128C59.0239 10.0128 59.2354 10.0448 59.4641 10.0779V7.68517C59.2723 7.64642 59.1411 7.62855 58.9025 7.62855L58.9023 7.62864ZM21.578 12.5691V13.7093C21.578 13.878 21.5633 14.052 21.5166 14.2041C21.3254 14.8374 20.6694 15.3725 19.8493 15.3725C19.1656 15.3725 18.6225 14.9845 18.6225 14.1636C18.6225 12.908 20.0046 12.561 21.578 12.5691H21.578ZM49.9944 12.5691V13.7093C49.9944 13.878 49.9795 14.052 49.9331 14.2041C49.7419 14.8374 49.0861 15.3725 48.266 15.3725C47.5822 15.3725 47.039 14.9845 47.039 14.1636C47.039 12.908 48.4211 12.561 49.9945 12.5691H49.9944Z" fill="#2D2D2D"/>
<path d="M78.4325 0.408722C77.6349 0.408722 77.001 0.854112 77.001 1.39633L77.4853 6.88098C77.5388 7.21142 77.9436 7.46631 78.4329 7.46631C78.9232 7.46567 79.3266 7.211 79.3812 6.88098L79.8679 1.39633C79.8679 0.854159 79.2322 0.408768 78.4335 0.408768L78.4325 0.408722ZM70.5391 4.80825C70.1251 4.81808 69.6547 5.13157 69.3555 5.65032C68.9553 6.34109 69.0263 7.11303 69.4944 7.38384L74.4859 9.70836C74.7977 9.82434 75.2212 9.6029 75.4665 9.18011C75.4665 9.18005 75.4664 9.17994 75.4665 9.17988C75.7128 8.755 75.6938 8.27728 75.4344 8.06538L70.9262 4.90338C70.8092 4.83556 70.6774 4.80505 70.5394 4.80832L70.5391 4.80825ZM86.3258 4.80825C86.1878 4.80498 86.0563 4.83549 85.9395 4.90331L81.4307 8.06531C81.1729 8.2772 81.1538 8.75495 81.3989 9.17981L81.3991 9.18004C81.6453 9.60283 82.0674 9.82427 82.3792 9.7083L87.3729 7.38389C87.843 7.11308 87.9104 6.34117 87.513 5.65037C87.2124 5.1316 86.7413 4.81813 86.3273 4.8083L86.3258 4.80825ZM74.6724 12.0445C74.6078 12.0436 74.5452 12.0536 74.4866 12.0756L69.4951 14.3974C69.0269 14.6694 68.956 15.4416 69.3562 16.1331C69.7551 16.8225 70.4583 17.1503 70.9266 16.8799L75.4351 13.7203C75.6945 13.5058 75.7136 13.0283 75.4672 12.6038L75.4692 12.6047C75.2699 12.259 74.9522 12.0482 74.6724 12.0444L74.6724 12.0445ZM82.1948 12.0445C81.9153 12.0483 81.5982 12.2591 81.3984 12.6048L81.4002 12.6039C81.155 13.0283 81.174 13.5059 81.4319 13.7204L85.9406 16.88C86.408 17.1503 87.1119 16.8226 87.5126 16.1332C87.9101 15.4416 87.8427 14.6694 87.3726 14.3974L82.3804 12.0757C82.3218 12.0537 82.2593 12.0437 82.1948 12.0446L82.1948 12.0445ZM78.4318 14.3175C77.9433 14.3181 77.5394 14.5719 77.486 14.9015L77.0016 20.3859C77.0016 20.9291 77.6356 21.3735 78.4331 21.3735C79.2322 21.3735 79.8673 20.929 79.8673 20.3859L79.3818 14.9015C79.3272 14.5719 78.9239 14.3182 78.4336 14.3175H78.4317H78.4318Z" fill="#2D2D2D"/>
</g>
<defs>
<clipPath id="clip0_562_18">
<rect width="87.7462" height="21.8963" fill="white" transform="translate(0.517578 0.0244141)"/>
</clipPath>
</defs>
</svg>
